<svg xmlns="http://www.w3.org/2000/svg" width="30" height="30"><g fill="#FFF"><path d="M15.8 18.4l-5.5 5.5h11z"/><path d="M24.3 24.7h-1.5v-1.9c0-3.2-2.2-6-5.3-6.8v-2c3.1-.8 5.3-3.6 5.3-6.8v-2h1.5c.5 0 .9-.4.9-.9s-.4-.9-.9-.9H7.4c-.5 0-.9.4-.9.9s.4.9.9.9h1.5v2c0 3.2 2.2 6 5.3 6.8v2.1c-3.1.8-5.3 3.6-5.3 6.8v1.9H7.4c-.5 0-.9.4-.9.9s.4.9.9.9h16.9c.5 0 .9-.4.9-.9s-.4-1-.9-1zM10.4 6.9h10.9c0 3.1-2.3 5.6-5.5 5.6-3.1.1-5.4-2.5-5.4-5.6zM21.8 24c-.1.2-.3.3-.5.3h-11c-.2 0-.4-.1-.5-.3-.1-.2 0-.4.1-.5l5.5-5.5c.2-.2.5-.2.7 0l5.5 5.5c.2.1.3.4.2.5z"/></g></svg>