<svg xmlns="http://www.w3.org/2000/svg" width="30" height="30"><path fill="none" d="M20.4 10.2h-3.7c-.3 0-.5.2-.5.5s.2.5.5.5h3.7c.3 0 .5-.2.5-.5s-.2-.5-.5-.5zm-3.7-.4h2c.3 0 .5-.2.5-.5s-.2-.5-.5-.5h-2c-.3 0-.5.2-.5.5s.2.5.5.5z"/><g fill="#FFF"><path d="M26.8 21.2V6.1c0-.5-.4-.9-.9-.9H4.1c-.5 0-.9.4-.9.9v15.1H1.4v.5c0 1.8 1.4 3.2 3.2 3.2h20.9c1.8 0 3.2-1.4 3.2-3.2v-.5h-1.9zM9.4 7.3c.9 0 1.7.7 1.7 1.7s-.7 1.7-1.7 1.7c-.9 0-1.7-.7-1.7-1.7s.8-1.7 1.7-1.7zm-4.1 6.4c0-.8.6-2.3 2.7-2.3h2.9c1.9 0 2.5 2 2.5 2V15h1.9c.3 0 .6.2.9.5l1.4-1.4h-1.5c-.4 0-.8-.4-.8-.8V8.7c0-.4.4-.8.8-.8h7.2c.4 0 .8.4.8.8v4.7c0 .4-.4.8-.8.8H19l-2.6 2.6c-.2.7-.9 1-1.4 1.1h-3.2v3.4h-5v-.6c-.6-.3-1.5-.8-1.5-1.6v-5.4zm11.1 8.4v.2c0 .1-.1.2-.2.2h-2.3c-.1 0-.2-.1-.2-.2v-.2h2.7zm9 1.9H4.6c-1.1 0-2-.8-2.2-1.8h10.4v.2c0 .6.5 1.1 1.1 1.1h2.3c.6 0 1.1-.5 1.1-1.1v-.2h10.4c-.3 1-1.2 1.8-2.3 1.8z"/><path d="M16.7 9.8h2c.3 0 .5-.2.5-.5s-.2-.5-.5-.5h-2c-.3 0-.5.2-.5.5s.2.5.5.5zm4.2.9c0-.3-.2-.5-.5-.5h-3.7c-.3 0-.5.2-.5.5s.2.5.5.5h3.7c.3 0 .5-.2.5-.5z"/></g></svg>