<svg xmlns="http://www.w3.org/2000/svg" width="30" height="30"><g fill="#FFF"><path d="M19.6 9.8c0-.6-.5-1.8-1.8-1.8h-5.5c-1.3 0-1.8 1.2-1.9 1.9v6.3c0 .9.8 1.5 1.4 1.7v8.9c0 .5.4 1.3 1.4 1.3.5 0 .8-.2 1-.4.4-.4.4-1 .4-1v-5.5h1v5.5c0 .1 0 .6.4 1 .2.2.5.4 1 .4 1 0 1.4-.8 1.4-1.4v-8.9c.6-.3 1.4-.8 1.4-1.7V9.8zM15 7.4c1.6 0 2.8-1.3 2.8-2.8 0-1.5-1.3-2.8-2.8-2.8-1.6 0-2.8 1.3-2.8 2.8 0 1.5 1.3 2.8 2.8 2.8z"/><path d="M10.5 18s-.4-.2-.7-.6c-.3-.4-.3-.8-.3-1.4v-4c0-.3-.2-.5-.5-.5H6.1c-1.2 0-1.6 1-1.6 1.6V18c0 .9.5 1.4 1 1.5v7.2c.2.5.6 1.3 1.5 1.3s1.3-.8 1.4-1.4v-4.2h.2v4.3c0 .2.1.3.2.4l1.2.8c.1.1.2.1.3.1.1 0 .2 0 .2-.1.2-.1.3-.3.3-.4v-9c0-.2-.1-.4-.3-.5zm-2.4-7.3c.3 0 .7-.1 1-.2.1-.1.3-.2.3-.4v-.3c.1-.6.1-.9.6-1.5.1-.1.2-.3.1-.5-.3-.9-1.1-1.4-2-1.4-1.2 0-2.1.9-2.1 2.1 0 1.2.9 2.2 2.1 2.2zm15.8.8H21c-.3 0-.5.2-.5.5v4c0 .5 0 1-.3 1.4-.3.4-.7.6-.7.6-.2.1-.3.3-.3.5v9c0 .2.1.3.3.4.1 0 .2.1.2.1.1 0 .2 0 .3-.1l1.2-.8c.1-.1.2-.3.2-.4v-4.3h.2v4.3c.1.5.5 1.3 1.4 1.3.9 0 1.3-.8 1.4-1.3v-7.2c.5-.1 1-.6 1-1.5v-5c0-.5-.4-1.5-1.5-1.5zm-3.3-1.7v.3c0 .2.1.3.3.4.3.1.6.2 1 .2 1.2 0 2.2-1 2.2-2.1 0-1.2-1-2.2-2.2-2.2-.9 0-1.7.6-2 1.4-.1.2 0 .4.1.5.5.6.5.9.6 1.5z"/></g></svg>