<svg width="520" height="97" fill="none" xmlns="http://www.w3.org/2000/svg"><mask id="a" style="mask-type:alpha" maskUnits="userSpaceOnUse" x="0" y="0" width="520" height="97"><path transform="matrix(-1 0 0 1 520 0)" fill="#C4C4C4" d="M0 0h520v97H0z"/></mask><g mask="url(#a)"><circle r="5" transform="matrix(-1 0 0 1 506 45)" fill="#93C9CB"/><circle r="7" transform="matrix(-1 0 0 1 473 19)" stroke="#93C9CB" stroke-width="4"/><circle r="7" transform="matrix(-1 0 0 1 474 71)" stroke="#93C9CB" stroke-width="4"/><circle r="7" transform="matrix(-1 0 0 1 441 45)" stroke="#93C9CB" stroke-width="4"/><circle r="5" transform="matrix(-1 0 0 1 408 19)" fill="#93C9CB"/><circle r="5" transform="matrix(-1 0 0 1 409 71)" fill="#93C9CB"/><circle r="5" transform="matrix(-1 0 0 1 376 45)" fill="#93C9CB"/><circle r="5" transform="matrix(-1 0 0 1 343 19)" fill="#93C9CB"/><circle r="5" transform="matrix(-1 0 0 1 344 71)" fill="#93C9CB"/><circle r="5" transform="matrix(-1 0 0 1 311 45)" fill="#93C9CB"/><circle r="5" transform="matrix(-1 0 0 1 278 19)" fill="#93C9CB"/><circle r="5" transform="matrix(-1 0 0 1 279 71)" fill="#93C9CB"/><circle r="5" transform="matrix(-1 0 0 1 246 45)" fill="#93C9CB"/><circle r="7" transform="matrix(-1 0 0 1 213 19)" stroke="#93C9CB" stroke-width="4"/><circle r="7" transform="matrix(-1 0 0 1 214 71)" stroke="#93C9CB" stroke-width="4"/><circle r="7" transform="matrix(-1 0 0 1 181 45)" stroke="#93C9CB" stroke-width="4"/><circle r="5" transform="matrix(-1 0 0 1 148 19)" fill="#93C9CB"/><circle r="5" transform="matrix(-1 0 0 1 149 71)" fill="#93C9CB"/><circle r="5" transform="matrix(-1 0 0 1 116 45)" fill="#93C9CB"/><circle r="5" transform="matrix(-1 0 0 1 83 19)" fill="#93C9CB"/><circle r="5" transform="matrix(-1 0 0 1 84 71)" fill="#93C9CB"/><circle r="5" transform="matrix(-1 0 0 1 51 45)" fill="#93C9CB"/><circle r="5" transform="matrix(-1 0 0 1 18 19)" fill="#93C9CB"/><circle r="5" transform="matrix(-1 0 0 1 19 71)" fill="#93C9CB"/><circle r="3" transform="matrix(-1 0 0 1 506 19)" fill="#93C9CB"/><circle r="3" transform="matrix(-1 0 0 1 506 71)" fill="#93C9CB"/><circle r="3" transform="matrix(-1 0 0 1 473 45)" fill="#93C9CB"/><circle r="3" transform="matrix(-1 0 0 1 441 19)" fill="#93C9CB"/><circle r="3" transform="matrix(-1 0 0 1 441 71)" fill="#93C9CB"/><circle r="3" transform="matrix(-1 0 0 1 408 45)" fill="#93C9CB"/><circle r="3" transform="matrix(-1 0 0 1 376 19)" fill="#93C9CB"/><circle r="3" transform="matrix(-1 0 0 1 376 71)" fill="#93C9CB"/><circle r="3" transform="matrix(-1 0 0 1 343 45)" fill="#93C9CB"/><circle r="3" transform="matrix(-1 0 0 1 311 19)" fill="#93C9CB"/><circle r="3" transform="matrix(-1 0 0 1 311 71)" fill="#93C9CB"/><circle r="3" transform="matrix(-1 0 0 1 278 45)" fill="#93C9CB"/><circle r="3" transform="matrix(-1 0 0 1 246 19)" fill="#93C9CB"/><circle r="3" transform="matrix(-1 0 0 1 246 71)" fill="#93C9CB"/><circle r="3" transform="matrix(-1 0 0 1 213 45)" fill="#93C9CB"/><circle r="3" transform="matrix(-1 0 0 1 181 19)" fill="#93C9CB"/><circle r="3" transform="matrix(-1 0 0 1 181 71)" fill="#93C9CB"/><circle r="3" transform="matrix(-1 0 0 1 148 45)" fill="#93C9CB"/><circle r="3" transform="matrix(-1 0 0 1 116 19)" fill="#93C9CB"/><circle r="3" transform="matrix(-1 0 0 1 116 71)" fill="#93C9CB"/><circle r="3" transform="matrix(-1 0 0 1 83 45)" fill="#93C9CB"/><circle r="3" transform="matrix(-1 0 0 1 51 19)" fill="#93C9CB"/><circle r="3" transform="matrix(-1 0 0 1 51 71)" fill="#93C9CB"/><circle r="3" transform="matrix(-1 0 0 1 18 45)" fill="#93C9CB"/></g></svg>