<svg xmlns="http://www.w3.org/2000/svg" width="47.359" height="37.932"><path data-name="Tracé 83" d="M47.068 35.336a25.787 25.787 0 00-15-12.777 12.646 12.646 0 005.282-9.982C37.35 5.59 31.434 0 24.039 0S10.727 5.59 10.727 12.577a11.8 11.8 0 005.071 9.782A25.658 25.658 0 00.163 35.136a1.939 1.939 0 001.056 2.6 1.329 1.329 0 00.845.2 2.037 2.037 0 001.9-1.2 22.054 22.054 0 0119.65-11.779 21.816 21.816 0 0119.65 11.779 2.146 2.146 0 002.747 1 1.5 1.5 0 001.057-2.4zM24.038 3.993a8.6 8.6 0 11-9.085 8.584 8.78 8.78 0 019.085-8.584z" fill="#fff"/></svg>