<?xml version="1.0" encoding="utf-8"?>
<!-- Generator: Adobe Illustrator 18.0.0, SVG Export Plug-In . SVG Version: 6.00 Build 0)  -->
<!DOCTYPE svg PUBLIC "-//W3C//DTD SVG 1.1//EN" "http://www.w3.org/Graphics/SVG/1.1/DTD/svg11.dtd" [
	<!ENTITY ns_flows "http://ns.adobe.com/Flows/1.0/">
	<!ENTITY ns_extend "http://ns.adobe.com/Extensibility/1.0/">
	<!ENTITY ns_ai "http://ns.adobe.com/AdobeIllustrator/10.0/">
	<!ENTITY ns_graphs "http://ns.adobe.com/Graphs/1.0/">
]>
<svg version="1.1" xmlns:x="&ns_extend;" xmlns:i="&ns_ai;" xmlns:graph="&ns_graphs;"
	 xmlns="http://www.w3.org/2000/svg" xmlns:xlink="http://www.w3.org/1999/xlink" xmlns:a="http://ns.adobe.com/AdobeSVGViewerExtensions/3.0/"
	 x="0px" y="0px" width="30px" height="30px" viewBox="0 0 30 30" enable-background="new 0 0 30 30" xml:space="preserve">
<g id="Calque_1">
</g>
<g id="Participants">
</g>
<g id="Time">
</g>
<g id="A_distance">
	<g display="none">
		<g display="inline">
			<rect x="1.4" y="2.2" fill="none" stroke="#B4B4B4" stroke-width="0.1" stroke-miterlimit="10" width="27.3" height="27.3"/>
			<line fill="none" stroke="#B4B4B4" stroke-width="0.1" stroke-miterlimit="10" x1="15" y1="2.2" x2="15" y2="29.4"/>
			<line fill="none" stroke="#B4B4B4" stroke-width="0.1" stroke-miterlimit="10" x1="28.6" y1="15.8" x2="1.4" y2="15.8"/>
			<line fill="none" stroke="#B4B4B4" stroke-width="0.1" stroke-miterlimit="10" x1="1.4" y1="2.2" x2="28.6" y2="29.4"/>
			<rect x="5" y="5.8" fill="none" stroke="#B4B4B4" stroke-width="0.1" stroke-miterlimit="10" width="20" height="20"/>
			<line fill="none" stroke="#B4B4B4" stroke-width="0.1" stroke-miterlimit="10" x1="28.6" y1="2.2" x2="1.4" y2="29.4"/>
			<line fill="none" stroke="#B4B4B4" stroke-width="0.1" stroke-miterlimit="10" x1="1.4" y1="15.8" x2="15" y2="2.2"/>
			<line fill="none" stroke="#B4B4B4" stroke-width="0.1" stroke-miterlimit="10" x1="15" y1="2.2" x2="28.6" y2="15.8"/>
			<line fill="none" stroke="#B4B4B4" stroke-width="0.1" stroke-miterlimit="10" x1="28.6" y1="15.8" x2="15" y2="29.4"/>
			<line fill="none" stroke="#B4B4B4" stroke-width="0.1" stroke-miterlimit="10" x1="15" y1="29.4" x2="1.4" y2="15.8"/>
			<circle fill="none" stroke="#B4B4B4" stroke-width="0.1" stroke-miterlimit="10" cx="15" cy="15.8" r="9.5"/>
		</g>
	</g>
	<g>
		<path fill="none" d="M20.4,10.2h-3.7c-0.3,0-0.5,0.2-0.5,0.5s0.2,0.5,0.5,0.5h3.7c0.3,0,0.5-0.2,0.5-0.5S20.7,10.2,20.4,10.2z"/>
		<path fill="none" d="M16.7,9.8h2c0.3,0,0.5-0.2,0.5-0.5s-0.2-0.5-0.5-0.5h-2c-0.3,0-0.5,0.2-0.5,0.5S16.4,9.8,16.7,9.8z"/>
		<g>
			<path fill="#FFFFFF" d="M26.8,21.2V6.1c0-0.5-0.4-0.9-0.9-0.9H4.1c-0.5,0-0.9,0.4-0.9,0.9v15.1H1.4v0.5c0,1.8,1.4,3.2,3.2,3.2
				h20.9c1.8,0,3.2-1.4,3.2-3.2v-0.5H26.8z M9.4,7.3c0.9,0,1.7,0.7,1.7,1.7s-0.7,1.7-1.7,1.7c-0.9,0-1.7-0.7-1.7-1.7
				S8.5,7.3,9.4,7.3z M5.3,13.7c0-0.8,0.6-2.3,2.7-2.3h2.9c1.9,0,2.5,2,2.5,2l0,0.2v1.4h1.9c0.3,0,0.6,0.2,0.9,0.5l1.4-1.4h-1.5
				c-0.4,0-0.8-0.4-0.8-0.8V8.7c0-0.4,0.4-0.8,0.8-0.8h7.2c0.4,0,0.8,0.4,0.8,0.8v4.7c0,0.4-0.4,0.8-0.8,0.8H19l-2.6,2.6
				c-0.2,0.7-0.9,1-1.4,1.1h-3.2v3.4H6.8v-0.6c-0.6-0.3-1.5-0.8-1.5-1.6V13.7z M16.4,22.1v0.2c0,0.1-0.1,0.2-0.2,0.2h-2.3
				c-0.1,0-0.2-0.1-0.2-0.2v-0.2H16.4z M25.4,24H4.6c-1.1,0-2-0.8-2.2-1.8h10.4v0.2c0,0.6,0.5,1.1,1.1,1.1h2.3
				c0.6,0,1.1-0.5,1.1-1.1v-0.2h10.4C27.4,23.2,26.5,24,25.4,24z"/>
			<path fill="#FFFFFF" d="M16.7,9.8h2c0.3,0,0.5-0.2,0.5-0.5s-0.2-0.5-0.5-0.5h-2c-0.3,0-0.5,0.2-0.5,0.5S16.4,9.8,16.7,9.8z"/>
			<path fill="#FFFFFF" d="M20.9,10.7c0-0.3-0.2-0.5-0.5-0.5h-3.7c-0.3,0-0.5,0.2-0.5,0.5s0.2,0.5,0.5,0.5h3.7
				C20.7,11.2,20.9,11,20.9,10.7z"/>
		</g>
	</g>
</g>
</svg>
