<svg width="34" height="63" viewBox="0 0 34 63" fill="none" xmlns="http://www.w3.org/2000/svg">
<path d="M26.9654 62.9448H6.36819C3.77511 62.9448 1.66379 60.8335 1.66379 58.2404C1.66379 55.6447 3.77511 53.5334 6.36819 53.5334H13.4314V50.9087C5.80746 49.7109 0 43.0426 0 35.2159V22.5954C0 21.8688 0.589696 21.2791 1.31629 21.2791C2.04288 21.2791 2.63257 21.8688 2.63257 22.5954V35.2133C2.63257 42.0843 7.99776 47.8865 14.8503 48.4262C15.5348 48.4788 16.064 49.0501 16.064 49.7372V54.847C16.064 55.5736 15.4743 56.1633 14.7477 56.1633H6.36819C5.22566 56.1633 4.29636 57.0952 4.29636 58.2378C4.29636 59.3803 5.22829 60.3096 6.36819 60.3096H26.9628C28.1053 60.3096 29.0346 59.3777 29.0346 58.2378C29.0346 57.0926 28.1027 56.1633 26.9628 56.1633H18.5833C17.8567 56.1633 17.267 55.5736 17.267 54.847V49.7372C17.267 49.0501 17.7962 48.4762 18.4807 48.4262C25.3332 47.8891 30.6984 42.0869 30.6984 35.2133V22.4453C30.6984 21.7187 31.2881 21.129 32.0147 21.129C32.7413 21.129 33.331 21.7187 33.331 22.4453V35.2159C33.331 43.0426 27.5235 49.7109 19.8996 50.9087V53.5334H26.9628C29.5559 53.5334 31.6672 55.6447 31.6672 58.2404C31.6698 60.8335 29.5585 62.9448 26.9654 62.9448Z" fill="white"/>
<path d="M16.9881 46.636H16.3484C9.69851 46.636 4.28857 41.2235 4.28857 34.5736V12.0598C4.28857 5.40994 9.69851 0 16.3484 0H16.9881C23.638 0 29.0479 5.40994 29.0479 12.0598V34.5736C29.0479 41.2261 23.638 46.636 16.9881 46.636ZM16.3458 2.63257C11.1464 2.63257 6.91851 6.86048 6.91851 12.0598V34.5736C6.91851 39.7755 11.1464 44.0035 16.3458 44.0035H16.9855C22.1848 44.0035 26.4127 39.7755 26.4127 34.5736V12.0598C26.4127 6.86048 22.1848 2.63257 16.9855 2.63257H16.3458Z" fill="white"/>
<path d="M9.86682 15.2557C9.14023 15.2557 8.55054 14.666 8.55054 13.9395V3.49603C8.55054 2.76944 9.14023 2.17975 9.86682 2.17975C10.5934 2.17975 11.1831 2.76944 11.1831 3.49603V13.9395C11.1831 14.6687 10.5934 15.2557 9.86682 15.2557Z" fill="white"/>
<path d="M14.4003 15.2557C13.6737 15.2557 13.084 14.666 13.084 13.9394V1.9823C13.084 1.25571 13.6737 0.666016 14.4003 0.666016C15.1269 0.666016 15.7166 1.25571 15.7166 1.9823V13.9394C15.7166 14.6687 15.1295 15.2557 14.4003 15.2557Z" fill="white"/>
<path d="M18.9335 15.2557C18.2069 15.2557 17.6172 14.666 17.6172 13.9394V1.9823C17.6172 1.25571 18.2069 0.666016 18.9335 0.666016C19.6601 0.666016 20.2498 1.25571 20.2498 1.9823V13.9394C20.2498 14.6687 19.6601 15.2557 18.9335 15.2557Z" fill="white"/>
<path d="M23.4667 15.2557C22.7401 15.2557 22.1504 14.666 22.1504 13.9395V3.49603C22.1504 2.76944 22.7401 2.17975 23.4667 2.17975C24.1933 2.17975 24.783 2.76944 24.783 3.49603V13.9395C24.783 14.6687 24.1959 15.2557 23.4667 15.2557Z" fill="white"/>
<path d="M27.7316 23.7616H5.60217C4.87558 23.7616 4.28589 23.1719 4.28589 22.4453C4.28589 21.7187 4.87558 21.129 5.60217 21.129H27.7289C28.4555 21.129 29.0452 21.7187 29.0452 22.4453C29.0452 23.1719 28.4582 23.7616 27.7316 23.7616Z" fill="white"/>
</svg>
