<?xml version="1.0" encoding="utf-8"?>
<!-- Generator: Adobe Illustrator 18.0.0, SVG Export Plug-In . SVG Version: 6.00 Build 0)  -->
<!DOCTYPE svg PUBLIC "-//W3C//DTD SVG 1.1//EN" "http://www.w3.org/Graphics/SVG/1.1/DTD/svg11.dtd" [
	<!ENTITY ns_flows "http://ns.adobe.com/Flows/1.0/">
	<!ENTITY ns_extend "http://ns.adobe.com/Extensibility/1.0/">
	<!ENTITY ns_ai "http://ns.adobe.com/AdobeIllustrator/10.0/">
	<!ENTITY ns_graphs "http://ns.adobe.com/Graphs/1.0/">
]>
<svg version="1.1" xmlns:x="&ns_extend;" xmlns:i="&ns_ai;" xmlns:graph="&ns_graphs;"
	 xmlns="http://www.w3.org/2000/svg" xmlns:xlink="http://www.w3.org/1999/xlink" xmlns:a="http://ns.adobe.com/AdobeSVGViewerExtensions/3.0/"
	 x="0px" y="0px" width="30px" height="30px" viewBox="0 0 30 30" enable-background="new 0 0 30 30" xml:space="preserve">
<g id="Calque_1">
</g>
<g id="Participants">
	<g>
		<path fill="#FFFFFF" d="M19.6,9.8C19.6,9.2,19.1,8,17.8,8h-5.5c-1.3,0-1.8,1.2-1.9,1.9v6.3c0,0.9,0.8,1.5,1.4,1.7v8.9
			c0,0.5,0.4,1.3,1.4,1.3c0.5,0,0.8-0.2,1-0.4c0.4-0.4,0.4-1,0.4-1v-5.5h1v5.5c0,0.1,0,0.6,0.4,1c0.2,0.2,0.5,0.4,1,0.4
			c1,0,1.4-0.8,1.4-1.4v-8.9c0.6-0.3,1.4-0.8,1.4-1.7V9.8z"/>
		<path fill="#FFFFFF" d="M15,7.4c1.6,0,2.8-1.3,2.8-2.8c0-1.5-1.3-2.8-2.8-2.8c-1.6,0-2.8,1.3-2.8,2.8C12.2,6.1,13.5,7.4,15,7.4z"
			/>
		<path fill="#FFFFFF" d="M10.5,18c0,0-0.4-0.2-0.7-0.6C9.5,17,9.5,16.6,9.5,16v-4c0-0.3-0.2-0.5-0.5-0.5H6.1c-1.2,0-1.6,1-1.6,1.6
			V18c0,0.9,0.5,1.4,1,1.5v7.1c0,0,0,0.1,0,0.1C5.7,27.2,6.1,28,7,28c0.9,0,1.3-0.8,1.4-1.4v-4.2h0.2v4.3c0,0.2,0.1,0.3,0.2,0.4
			l1.2,0.8c0.1,0.1,0.2,0.1,0.3,0.1c0.1,0,0.2,0,0.2-0.1c0.2-0.1,0.3-0.3,0.3-0.4v-9C10.8,18.3,10.7,18.1,10.5,18z"/>
		<path fill="#FFFFFF" d="M8.1,10.7c0.3,0,0.7-0.1,1-0.2c0.1-0.1,0.3-0.2,0.3-0.4l0-0.3C9.5,9.2,9.5,8.9,10,8.3
			c0.1-0.1,0.2-0.3,0.1-0.5C9.8,6.9,9,6.4,8.1,6.4C6.9,6.4,6,7.3,6,8.5C6,9.7,6.9,10.7,8.1,10.7z"/>
		<path fill="#FFFFFF" d="M23.9,11.5H21c-0.3,0-0.5,0.2-0.5,0.5v4c0,0.5,0,1-0.3,1.4c-0.3,0.4-0.7,0.6-0.7,0.6
			c-0.2,0.1-0.3,0.3-0.3,0.5v9c0,0.2,0.1,0.3,0.3,0.4c0.1,0,0.2,0.1,0.2,0.1c0.1,0,0.2,0,0.3-0.1l1.2-0.8c0.1-0.1,0.2-0.3,0.2-0.4
			v-4.3h0.2l0,4.3c0.1,0.5,0.5,1.3,1.4,1.3c0.9,0,1.3-0.8,1.4-1.3c0,0,0-0.1,0-0.1v-7.1c0.5-0.1,1-0.6,1-1.5v-5
			C25.4,12.5,25,11.5,23.9,11.5z"/>
		<path fill="#FFFFFF" d="M20.6,9.8l0,0.3c0,0.2,0.1,0.3,0.3,0.4c0.3,0.1,0.6,0.2,1,0.2c1.2,0,2.2-1,2.2-2.1c0-1.2-1-2.2-2.2-2.2
			c-0.9,0-1.7,0.6-2,1.4c-0.1,0.2,0,0.4,0.1,0.5C20.5,8.9,20.5,9.2,20.6,9.8z"/>
	</g>
</g>
<g id="Time">
</g>
<g id="A_distance">
</g>
</svg>
