<?xml version="1.0" encoding="utf-8"?>
<!-- Generator: Adobe Illustrator 18.0.0, SVG Export Plug-In . SVG Version: 6.00 Build 0)  -->
<!DOCTYPE svg PUBLIC "-//W3C//DTD SVG 1.1//EN" "http://www.w3.org/Graphics/SVG/1.1/DTD/svg11.dtd" [
	<!ENTITY ns_flows "http://ns.adobe.com/Flows/1.0/">
	<!ENTITY ns_extend "http://ns.adobe.com/Extensibility/1.0/">
	<!ENTITY ns_ai "http://ns.adobe.com/AdobeIllustrator/10.0/">
	<!ENTITY ns_graphs "http://ns.adobe.com/Graphs/1.0/">
]>
<svg version="1.1" xmlns:x="&ns_extend;" xmlns:i="&ns_ai;" xmlns:graph="&ns_graphs;"
	 xmlns="http://www.w3.org/2000/svg" xmlns:xlink="http://www.w3.org/1999/xlink" xmlns:a="http://ns.adobe.com/AdobeSVGViewerExtensions/3.0/"
	 x="0px" y="0px" width="30px" height="30px" viewBox="0 0 30 30" enable-background="new 0 0 30 30" xml:space="preserve">
<g id="Calque_1">
</g>
<g id="Participants">
</g>
<g id="Time">
	<g id="Time_2_">
		<polygon id="Down_sand_2_" fill="#FFFFFF" points="15.8,18.4 15.8,18.4 10.3,23.9 21.3,23.9 		"/>
		<path fill="#FFFFFF" d="M24.3,24.7h-1.5v-1.9c0-3.2-2.2-6-5.3-6.8V14c3.1-0.8,5.3-3.6,5.3-6.8v-2h1.5c0,0,0,0,0,0h0
			c0.5,0,0.9-0.4,0.9-0.9s-0.4-0.9-0.9-0.9H7.4c-0.5,0-0.9,0.4-0.9,0.9c0,0.5,0.4,0.9,0.9,0.9c0,0,0,0,0,0h1.5v2
			c0,3.2,2.2,6,5.3,6.8v2.1c-3.1,0.8-5.3,3.6-5.3,6.8v1.9H7.4c-0.5,0-0.9,0.4-0.9,0.9s0.4,0.9,0.9,0.9h16.9c0.5,0,0.9-0.4,0.9-0.9
			S24.8,24.7,24.3,24.7z M10.4,6.9h10.9c0,3.1-2.3,5.6-5.5,5.6C12.7,12.6,10.4,10,10.4,6.9z M21.8,24c-0.1,0.2-0.3,0.3-0.5,0.3h-11
			c-0.2,0-0.4-0.1-0.5-0.3c-0.1-0.2,0-0.4,0.1-0.5l5.5-5.5c0.2-0.2,0.5-0.2,0.7,0l5.5,5.5C21.8,23.6,21.9,23.9,21.8,24z"/>
	</g>
</g>
<g id="A_distance">
</g>
</svg>
