<svg width="92" height="92" viewBox="0 0 92 92" fill="none" xmlns="http://www.w3.org/2000/svg">
<path fill-rule="evenodd" clip-rule="evenodd" d="M91.2523 38.633C88.4134 21.4463 75.8388 6.65069 57.9176 1.84872C33.4955 -4.69516 8.39262 9.798 1.84874 34.2201C-2.95323 52.1413 3.57279 70.4291 17.0375 81.481L91.2523 38.633ZM91.6937 42.1541L19.8662 83.6237C21.1989 84.5537 22.5886 85.4172 24.0319 86.2081L91.8489 47.0539C91.8856 45.4085 91.8327 43.7733 91.6937 42.1541ZM91.6717 50.1769L26.8251 87.6161C28.1928 88.2476 29.6026 88.8164 31.052 89.3179L91.0321 54.6884C91.3224 53.1825 91.5347 51.6771 91.6717 50.1769ZM90.4528 57.2884L33.5933 90.1163C33.8015 90.1752 34.0104 90.2327 34.2201 90.2889C35.5971 90.6579 36.9762 90.96 38.3541 91.1972L89.0085 61.9519C89.492 60.64 89.92 59.2946 90.2889 57.9176C90.3451 57.7079 90.3998 57.4981 90.4528 57.2884ZM88.2362 63.9081L40.4345 91.5064C42.398 91.7524 44.3554 91.8683 46.2966 91.8598L85.6111 69.1615C84.8155 70.5256 83.9541 71.8393 83.0321 73.0995L50.9964 91.5953C49.4441 91.7636 47.8757 91.8528 46.2966 91.8598M52.6745 91.3816L82.008 74.4459C74.767 83.6074 64.2291 89.6914 52.6745 91.3816Z" fill="#FCEFB9"/>
</svg>
