<svg width="92" height="92" viewBox="0 0 92 92" fill="none" xmlns="http://www.w3.org/2000/svg">
<path fill-rule="evenodd" clip-rule="evenodd" d="M38.6334 0.885411C21.4466 3.7243 6.65104 16.299 1.84906 34.2202C-4.69482 58.6423 9.79833 83.7451 34.2204 90.289C52.1416 95.091 70.4294 88.565 81.4813 75.1002L38.6334 0.885411ZM42.1545 0.444068L83.6241 72.2716C84.5541 70.9389 85.4175 69.5491 86.2084 68.1059L47.0542 0.288841C45.4089 0.252127 43.7736 0.305033 42.1545 0.444068ZM50.1772 0.46607L87.6164 65.3126C88.2479 63.9449 88.8167 62.5351 89.3183 61.0857L54.6888 1.10565C53.1828 0.815337 51.6775 0.603007 50.1772 0.46607ZM57.2887 1.6849L90.1166 58.5445C90.1755 58.3363 90.2331 58.1273 90.2893 57.9177C90.6582 56.5407 90.9603 55.1615 91.1975 53.7836L61.9522 3.12925C60.6403 2.64573 59.2949 2.21777 57.9179 1.84881C57.7082 1.79263 57.4985 1.73799 57.2887 1.6849ZM63.9085 3.9016L91.5068 51.7033C91.7528 49.7398 91.8686 47.7824 91.8601 45.8412L69.1619 6.52665C70.526 7.32221 71.8396 8.18367 73.0998 9.10565L91.5956 41.1413C91.764 42.6936 91.8532 44.2621 91.8601 45.8412M91.3819 39.4632L74.4462 10.1298C83.6077 17.3708 89.6918 27.9086 91.3819 39.4632Z" fill="#F3CABF"/>
</svg>
