<svg width="113" height="113" viewBox="0 0 113 113" fill="none" xmlns="http://www.w3.org/2000/svg">
<path fill-rule="evenodd" clip-rule="evenodd" d="M20.6569 85.1002C31.7088 98.5649 49.9966 105.091 67.9178 100.289C92.3399 93.7451 106.833 68.6422 100.289 44.2201C95.4872 26.2989 80.6916 13.7242 63.5048 10.8853L20.6569 85.1002ZM18.5142 82.2715L59.9838 10.444C58.3646 10.305 56.7293 10.2521 55.084 10.2888L15.9298 78.1058C16.7207 79.5491 17.5842 80.9388 18.5142 82.2715ZM14.5218 75.3126L51.961 10.466C50.4608 10.6029 48.9554 10.8153 47.4495 11.1056L12.8199 71.0857C13.3215 72.535 13.8903 73.9449 14.5218 75.3126ZM12.0216 68.5444L44.8495 11.6848C44.6397 11.7379 44.43 11.7926 44.2203 11.8487C42.8433 12.2177 41.4979 12.6457 40.186 13.1292L10.9407 63.7836C11.1779 65.1614 11.48 66.5406 11.849 67.9176C11.9052 68.1273 11.9627 68.3362 12.0216 68.5444ZM10.6315 61.7032L38.2298 13.9015C36.4063 14.6703 34.6533 15.5486 32.9764 16.5266L10.2781 55.8411C10.285 54.262 10.3742 52.6936 10.5426 51.1413L29.0384 19.1056C30.2986 18.1836 31.6123 17.3221 32.9764 16.5266M27.692 20.1297L10.7563 49.4632C12.4465 37.9086 18.5305 27.3707 27.692 20.1297Z" fill="#CCE3DE"/>
<circle cx="87" cy="43" r="24.5" stroke="white"/>
<circle cx="28" cy="92" r="7.5" stroke="#E07A5F"/>
</svg>
