<svg width="36" height="36" viewBox="0 0 36 36" fill="none" xmlns="http://www.w3.org/2000/svg">
<g clip-path="url(#clip0_1137_689)">
<path d="M22.3752 25.2918H26.7502C27.7077 25.2918 28.6559 25.1032 29.5406 24.7368C30.4252 24.3703 31.2291 23.8332 31.9061 23.1561C32.5832 22.4791 33.1203 21.6752 33.4868 20.7906C33.8532 19.9059 34.0418 18.9577 34.0418 18.0002C34.0418 17.0426 33.8532 16.0944 33.4868 15.2098C33.1203 14.3251 32.5832 13.5213 31.9061 12.8442C31.2291 12.1671 30.4252 11.63 29.5406 11.2635C28.6559 10.8971 27.7077 10.7085 26.7502 10.7085H22.3752M13.6252 25.2918H9.25016C8.29261 25.2918 7.34443 25.1032 6.45976 24.7368C5.5751 24.3703 4.77127 23.8332 4.09418 23.1561C2.72672 21.7887 1.9585 19.934 1.9585 18.0002C1.9585 16.0663 2.72672 14.2116 4.09418 12.8442C5.46163 11.4767 7.31629 10.7085 9.25016 10.7085H13.6252" stroke="#3D405B" stroke-width="2" stroke-linecap="round" stroke-linejoin="round"/>
<path d="M12.1665 18H23.8332" stroke="#3D405B" stroke-width="2" stroke-linecap="round" stroke-linejoin="round"/>
</g>
<defs>
<clipPath id="clip0_1137_689">
<rect width="35" height="35" fill="white" transform="translate(0.5 0.5)"/>
</clipPath>
</defs>
</svg>
