<svg xmlns="http://www.w3.org/2000/svg" width="35.045" height="42.215" viewBox="0 0 35.045 42.215">
  <g id="noun_Pin_2309969" transform="translate(2 2)">
    <g id="Groupe_53" data-name="Groupe 53" transform="translate(0 0)">
      <path id="Tracé_82" data-name="Tracé 82" d="M16.845,289.063c-8.556,0-15.522,6.582-15.522,14.667,0,5.889,3.757,11.409,7.384,15.521a55.472,55.472,0,0,0,7.257,6.854l.882.667.882-.667a55.472,55.472,0,0,0,7.257-6.854c3.627-4.112,7.384-9.632,7.384-15.521,0-8.084-6.966-14.667-15.522-14.667Zm0,8a6.677,6.677,0,1,1,0,13.333,6.677,6.677,0,1,1,0-13.333Z" transform="translate(-1.323 -289.063)" fill="none" stroke="#fff" stroke-width="4"/>
    </g>
  </g>
</svg>
